<?xml version="1.0" encoding="iso-8859-1"?>
<!-- Uploaded to: SVG Repo, www.svgrepo.com, Generator: SVG Repo Mixer Tools -->
<svg version="1.1" id="Layer_1" xmlns="http://www.w3.org/2000/svg" xmlns:xlink="http://www.w3.org/1999/xlink" 
	 viewBox="0 0 512 512" xml:space="preserve">
<path style="fill:#6CDFB4;" d="M454.809,217.227c-6.198-14.979-19.434-24.903-34.293-27.561
	c3.224-14.739-0.882-30.764-12.342-42.225c-11.46-11.47-27.485-15.578-42.224-12.353c-2.669-14.848-12.593-28.084-27.572-34.282
	c-7.517-3.116-15.393-4.085-22.942-3.17c2.34,0.344,0,163.165,0,163.165h150.267L454.809,217.227z"/>
<path style="fill:#7BFFCD;" d="M423.827,217.227c2.994,10.724,9.194,43.574,9.194,43.574H46.407L57.3,217.227
	c6.209-14.979,19.434-24.903,34.293-27.561c-3.225-14.739,0.882-30.764,12.342-42.224c11.46-11.471,27.485-15.578,42.235-12.353
	c2.658-14.848,12.582-28.084,27.561-34.282c14.979-6.209,31.352-3.867,43.738,4.75c8.148-12.702,22.376-21.134,38.585-21.134
	s30.448,8.432,38.585,21.134c6.166-4.281,13.323-7.015,20.796-7.92c3.399,0.501,6.798,1.536,10.109,3.17
	c12.647,6.198,21.025,19.434,23.269,34.282c5.632-1.46,11.493-1.416,17.103,0.131c6.798,1.863,13.247,5.937,18.541,12.223
	c9.684,11.46,13.149,27.485,10.425,42.224C407.421,192.325,419.56,201.943,423.827,217.227z"/>
<g>
	<path style="fill:#FFD764;" d="M356.766,8.172H155.234c-71.898,0-130.723,58.826-130.723,130.723v128.702h32.681V138.896
		c0-54.061,43.982-98.043,98.043-98.043h201.532c54.061,0,98.043,43.982,98.043,98.043v128.702h32.681V138.896
		C487.489,66.998,428.664,8.172,356.766,8.172z"/>
	<path style="fill:#FFD764;" d="M256,256.706L24.511,278.493l7.898,32.681l310.13,192.654h14.227
		c41.94,0,84.317-33.345,94.175-74.12l36.548-151.214L256,256.706z"/>
</g>
<path style="fill:#FFF1CF;" d="M487.489,245.81l-462.979-0.003c-9.02,0-16.34,7.321-16.34,16.34c0,9.031,7.321,16.34,16.34,16.34
	h462.979c9.02,0,16.34-7.31,16.34-16.34C503.83,253.128,496.509,245.81,487.489,245.81z"/>
<path style="fill:#FFE29E;" d="M447.869,311.174l-24.456,118.533c-8.464,40.775-44.849,74.12-80.874,74.12H155.234
	c-41.94,0-84.317-33.345-94.175-74.12l-28.65-118.533H447.869z"/>
<polygon style="fill:#CB2E3E;" points="234.213,257.949 256,397.152 291.404,417.383 291.404,257.949 "/>
<g>
	<polygon style="fill:#FF3B3B;" points="220.596,257.949 220.596,417.383 256,397.152 256,257.949 	"/>
	<path style="fill:#FF3B3B;" d="M136.303,201.418c0,0-16.473,24.322-16.473,60.731s16.473,60.731,16.473,60.731
		c37.673,7.242,84.293-25.325,84.293-25.325l21.787-35.405l-21.787-35.405C220.596,226.743,173.977,194.175,136.303,201.418z"/>
</g>
<path style="fill:#CB2E3E;" d="M375.699,201.421c-7.081-1.362-14.488-1.318-21.831-0.349l0.044,0.349v121.453l-0.044,0.349
	c7.342,0.97,14.75,1.013,21.831-0.349c0,0,16.471-24.315,16.471-60.721C392.17,225.735,375.699,201.421,375.699,201.421z"/>
<path style="fill:#FF3B3B;" d="M353.912,201.421c0,0,16.471,24.315,16.471,60.732c0,36.406-16.471,60.721-16.471,60.721
	l-0.044,0.349c-31.733-4.194-62.464-25.665-62.464-25.665l-21.787-35.404l21.787-35.415c0,0,30.731-21.471,62.464-25.665
	L353.912,201.421z"/>
<rect x="220.596" y="226.74" style="fill:#972041;" width="70.809" height="70.809"/>
<path d="M512,262.146c0-10.65-6.831-19.731-16.34-23.103V138.894C495.66,62.307,433.352,0,356.766,0H155.234
	C78.648,0,16.34,62.307,16.34,138.894v100.147C6.831,242.413,0,251.495,0,262.146c0,11.208,7.566,20.677,17.857,23.585
	l35.265,145.897C63.833,475.945,109.64,512,155.234,512h201.532c45.593,0,91.4-36.055,102.112-80.372l35.265-145.897
	C504.434,282.823,512,273.355,512,262.146z M155.234,16.34h201.532c67.575,0,122.553,54.977,122.553,122.553v98.744h-81.325
	c-4.719-24.555-14.973-39.975-15.534-40.804c-1.216-1.794-3.095-3.032-5.222-3.441c-36.228-6.962-78.243,18.586-88.322,25.178
	h-65.832c-10.079-6.595-52.105-32.144-88.322-25.178c-2.129,0.41-4.008,1.647-5.222,3.441c-0.561,0.829-10.814,16.248-15.532,40.802
	H32.681v-98.742C32.681,71.317,87.658,16.34,155.234,16.34z M128,262.146c0-26.375,9.401-46.117,13.352-53.249
	c27.599-3.245,60.475,15.614,71.073,22.27v22.809h-24.511c-4.512,0-8.17,3.657-8.17,8.17c0,4.513,3.658,8.17,8.17,8.17h24.511
	v22.809c-10.606,6.665-43.489,25.532-71.092,22.267C137.372,308.298,128,288.709,128,262.146z M283.234,289.381h-54.468v-54.47
	h54.468V289.381z M228.766,305.722h19.064v58.748c0,4.513,3.658,8.17,8.17,8.17c4.513,0,8.17-3.657,8.17-8.17v-58.748h19.064v97.581
	l-23.181-13.247c-1.255-0.718-2.655-1.076-4.054-1.076c-1.399,0-2.797,0.358-4.053,1.076l-23.181,13.247V305.722z M299.574,270.316
	h24.511c4.513,0,8.17-3.657,8.17-8.17c0-4.513-3.657-8.17-8.17-8.17h-24.511v-22.809c10.604-6.666,43.479-25.534,71.092-22.267
	c3.962,7.094,13.334,26.683,13.334,53.247c0,26.375-9.401,46.116-13.353,53.248c-27.586,3.255-60.465-15.606-71.072-22.27V270.316z
	 M24.49,253.977c0.063-0.001,87.439-0.001,87.439-0.001c-0.168,2.656-0.268,5.376-0.268,8.17c0,2.794,0.1,5.514,0.268,8.17H24.511
	c-4.506,0-8.17-3.665-8.17-8.17C16.34,257.648,19.994,253.988,24.49,253.977z M442.995,427.789
	c-8.892,36.79-48.381,67.87-86.229,67.87H155.234c-37.849,0-77.337-31.081-86.23-67.87L34.891,286.657h79.116
	c4.719,24.553,14.972,39.972,15.533,40.801c1.216,1.794,3.094,3.032,5.221,3.441c4.279,0.822,8.636,1.192,13.016,1.192
	c24.665,0,49.917-11.702,64.649-19.946v105.237c0,2.913,1.55,5.605,4.07,7.067c1.268,0.735,2.684,1.104,4.1,1.104
	c1.399,0,2.797-0.358,4.054-1.076L256,406.56l31.351,17.915c2.526,1.447,5.635,1.435,8.154-0.026
	c2.52-1.463,4.069-4.154,4.069-7.067V312.145c14.733,8.243,39.982,19.946,64.648,19.946c4.377,0,8.739-0.369,13.016-1.192
	c2.128-0.41,4.007-1.647,5.222-3.441c0.561-0.829,10.814-16.248,15.533-40.801h79.115L442.995,427.789z M487.489,270.316h-87.417
	c0.168-2.656,0.268-5.376,0.268-8.17c0-2.794-0.1-5.513-0.268-8.168h87.417c4.506,0,8.17,3.664,8.17,8.168
	C495.66,266.651,491.995,270.316,487.489,270.316z"/>
<path d="M384.539,412.938c-3.192-3.19-8.364-3.19-11.555,0l-5.777,5.777l-5.777-5.777c-3.192-3.19-8.364-3.19-11.555,0
	c-3.191,3.192-3.191,8.364,0,11.555l5.777,5.777l-5.777,5.777c-3.191,3.192-3.191,8.364,0,11.555
	c1.596,1.595,3.688,2.392,5.778,2.392s4.182-0.797,5.778-2.392l5.777-5.777l5.777,5.777c1.596,1.595,3.688,2.392,5.778,2.392
	c2.09,0,4.182-0.797,5.778-2.392c3.191-3.192,3.191-8.364,0-11.555l-5.777-5.777l5.777-5.777
	C387.73,421.302,387.73,416.13,384.539,412.938z"/>
<path d="M57.191,221.297c4.512,0,8.17-3.657,8.17-8.17v-74.233c0-49.555,40.316-89.872,89.872-89.872h201.532
	c49.555,0,89.872,40.317,89.872,89.872v74.233c0,4.513,3.657,8.17,8.17,8.17c4.513,0,8.17-3.657,8.17-8.17v-74.233
	c0-58.566-47.646-106.213-106.213-106.213H155.234c-58.566,0-106.213,47.646-106.213,106.213v74.233
	C49.021,217.639,52.679,221.297,57.191,221.297z"/>
<path d="M372.037,125.978c-4.917-14.739-15.917-26.673-30.527-32.724c-14.612-6.054-30.829-5.392-44.726,1.555
	c-10.182-11.737-24.913-18.553-40.727-18.553s-30.545,6.816-40.726,18.552c-13.899-6.946-30.114-7.605-44.726-1.555
	c-14.611,6.051-25.611,17.985-30.527,32.724c-15.499-1.092-30.734,4.497-41.916,15.68c-13.066,13.066-18.505,31.663-14.55,49.75
	c0.964,4.409,5.319,7.201,9.727,6.237s7.201-5.319,6.237-9.728c-2.759-12.62,1.032-25.593,10.142-34.704
	c9.109-9.109,22.082-12.9,34.705-10.141c2.17,0.477,4.438,0.046,6.285-1.188c1.846-1.234,3.11-3.166,3.502-5.352
	c2.28-12.716,10.748-23.251,22.65-28.182c11.902-4.927,25.341-3.466,35.943,3.913c1.822,1.268,4.083,1.74,6.262,1.306
	c2.178-0.432,4.085-1.734,5.285-3.604c6.97-10.875,18.824-17.369,31.708-17.369c12.883,0,24.737,6.494,31.71,17.369
	c1.198,1.869,3.106,3.17,5.285,3.604c2.179,0.434,4.438-0.039,6.261-1.306c10.603-7.38,24.042-8.841,35.943-3.913
	c11.902,4.929,20.37,15.466,22.651,28.183c0.391,2.185,1.657,4.117,3.502,5.351c1.845,1.232,4.11,1.662,6.286,1.188
	c12.622-2.759,25.593,1.031,34.703,10.142c9.11,9.109,12.901,22.082,10.142,34.703c-0.964,4.409,1.829,8.764,6.237,9.728
	c0.588,0.129,1.175,0.191,1.753,0.191c3.756,0,7.14-2.608,7.974-6.426c3.954-18.087-1.485-36.684-14.549-49.75
	C402.769,130.474,387.528,124.878,372.037,125.978z"/>
</svg>